<svg xmlns="http://www.w3.org/2000/svg" width="65.388" height="59.939" viewBox="0 0 65.388 59.939">
  <g id="Group_1254" data-name="Group 1254" transform="translate(0 -21.333)">
    <path id="Path_1475" data-name="Path 1475" d="M71.236,160.543a6.773,6.773,0,0,0-3.855-3.261l-3.714-1.237a4.085,4.085,0,0,1-2.5-2.359l-.54-1.352a4.007,4.007,0,0,0-2.293-2.271,4.179,4.179,0,0,0-3.342.149,8.213,8.213,0,0,1-7.37,0,4.225,4.225,0,0,0-3.342-.148,4,4,0,0,0-2.293,2.272l-.54,1.349a4.09,4.09,0,0,1-2.5,2.36l-3.714,1.239a6.772,6.772,0,0,0-3.855,3.257l-9.235,17.314a6.843,6.843,0,0,0-.8,3.2v6.811a5.455,5.455,0,0,0,5.449,5.449H75.823a5.455,5.455,0,0,0,5.449-5.449v-6.811a6.852,6.852,0,0,0-.8-3.206Zm7.311,27.327a2.727,2.727,0,0,1-2.724,2.724H26.782a2.727,2.727,0,0,1-2.724-2.724v-6.811a4.118,4.118,0,0,1,.482-1.924l9.235-17.315a4.061,4.061,0,0,1,2.312-1.952L39.8,158.63A6.791,6.791,0,0,0,43.97,154.7l.54-1.349a1.3,1.3,0,0,1,.75-.744,1.378,1.378,0,0,1,.508-.094,1.536,1.536,0,0,1,.662.153,10.941,10.941,0,0,0,9.743,0,1.48,1.48,0,0,1,1.171-.06,1.3,1.3,0,0,1,.75.742l.54,1.352A6.793,6.793,0,0,0,62.8,158.63h0l3.714,1.236a4.063,4.063,0,0,1,2.312,1.956l9.235,17.311a4.129,4.129,0,0,1,.481,1.925Z" transform="translate(-18.609 -112.047)" fill="#5d78ff"/>
    <path id="Path_1476" data-name="Path 1476" d="M64.214,33.548A45.9,45.9,0,0,0,32.694,21.333,45.9,45.9,0,0,0,1.173,33.548a3.643,3.643,0,0,0,0,5.356l6.279,5.872a4.061,4.061,0,0,0,5.462,0A27.421,27.421,0,0,1,20,39.972a3.623,3.623,0,0,0,2.182-3.158l.934-6.255a32.677,32.677,0,0,1,19.159,0l.915,6.056a3.74,3.74,0,0,0,2.168,3.368,27.573,27.573,0,0,1,7.1,4.81,4.059,4.059,0,0,0,5.462,0l6.3-5.888a3.643,3.643,0,0,0,0-5.356Zm-1.863,3.366-6.3,5.888a1.326,1.326,0,0,1-1.737,0,30.242,30.242,0,0,0-7.782-5.277,1.159,1.159,0,0,1-.636-1.112l-1.062-7.117a1.361,1.361,0,0,0-.95-1.1,37.8,37.8,0,0,0-11.164-1.805A38.343,38.343,0,0,0,21.5,28.192a1.361,1.361,0,0,0-.952,1.1l-1.078,7.318a1,1,0,0,1-.62.887,30.242,30.242,0,0,0-7.8,5.285,1.329,1.329,0,0,1-1.737,0L3.036,36.914a.915.915,0,0,1,0-1.375A43.181,43.181,0,0,1,32.694,24.058,43.181,43.181,0,0,1,62.352,35.538a.915.915,0,0,1,0,1.375Z" transform="translate(0 0)" fill="#5d78ff"/>
    <path id="Path_1477" data-name="Path 1477" d="M135.042,234.667c-9.929,0-17.709,4.786-17.709,10.9s7.78,10.9,17.709,10.9,17.709-4.786,17.709-10.9S144.972,234.667,135.042,234.667Zm0,19.071c-8.123,0-14.985-3.743-14.985-8.173s6.862-8.173,14.985-8.173,14.985,3.744,14.985,8.173S143.165,253.738,135.042,253.738Z" transform="translate(-102.348 -183.148)" fill="#5d78ff"/>
    <path id="Path_1478" data-name="Path 1478" d="M152.058,304c-1.578,0-2.725.859-2.725,2.043s1.147,2.043,2.725,2.043,2.724-.859,2.724-2.043S153.635,304,152.058,304Z" transform="translate(-130.262 -243.627)" fill="#5d78ff"/>
    <path id="Path_1479" data-name="Path 1479" d="M205.391,341.333c-1.578,0-2.724.859-2.724,2.043s1.147,2.043,2.724,2.043,2.724-.859,2.724-2.043S206.969,341.333,205.391,341.333Z" transform="translate(-176.784 -276.192)" fill="#5d78ff"/>
    <path id="Path_1480" data-name="Path 1480" d="M269.391,341.333c-1.578,0-2.724.859-2.724,2.043s1.147,2.043,2.724,2.043,2.724-.859,2.724-2.043S270.969,341.333,269.391,341.333Z" transform="translate(-232.611 -276.192)" fill="#5d78ff"/>
    <path id="Path_1481" data-name="Path 1481" d="M205.391,266.667c-1.578,0-2.724.859-2.724,2.043s1.147,2.043,2.724,2.043,2.724-.859,2.724-2.043S206.969,266.667,205.391,266.667Z" transform="translate(-176.784 -211.061)" fill="#5d78ff"/>
    <path id="Path_1482" data-name="Path 1482" d="M269.391,266.667c-1.578,0-2.724.859-2.724,2.043s1.147,2.043,2.724,2.043,2.724-.859,2.724-2.043S270.969,266.667,269.391,266.667Z" transform="translate(-232.611 -211.061)" fill="#5d78ff"/>
    <path id="Path_1483" data-name="Path 1483" d="M322.724,304c-1.578,0-2.724.859-2.724,2.043s1.147,2.043,2.724,2.043,2.725-.859,2.725-2.043S324.3,304,322.724,304Z" transform="translate(-279.133 -243.627)" fill="#5d78ff"/>
  </g>
</svg>
